<?xml version="1.0" encoding="utf-8"?>
<!-- Generator: Adobe Illustrator 22.1.0, SVG Export Plug-In . SVG Version: 6.00 Build 0)  -->
<svg version="1.1" id="Layer_1" xmlns="http://www.w3.org/2000/svg" xmlns:xlink="http://www.w3.org/1999/xlink" x="0px" y="0px"
	 viewBox="0 0 100 13" style="enable-background:new 0 0 100 13;" xml:space="preserve">
<g>
	<path d="M66.2,2.6h9.7c1.3-0.3,2.4-1.5,2.6-2.6h-15C63.9,1.2,64.9,2.3,66.2,2.6 M66.2,7.8h9.7c1.3-0.3,2.4-1.5,2.6-2.6h-15
		C63.9,6.3,64.9,7.5,66.2,7.8 M66.2,13h9.7c1.3-0.3,2.4-1.5,2.6-2.6h-15C63.9,11.6,64.9,12.8,66.2,13"/>
	<path d="M87.8,2.6h9c1.3-0.4,2.5-1.4,2.7-2.6H85.3v7.7h11.6v2.7h-9.1c-1.4,0.4-2.6,1.4-3.2,2.6h14.9V5.2H87.8V2.6z"/>
	<g>
		<polyline points="0.8,5.2 0.8,13 3.4,13 3.4,7.8 12.5,7.8 12.5,13 15.1,13 15.1,5.2 		"/>
		<path d="M3.1,2.6h9.7c1.3-0.3,2.4-1.5,2.6-2.6h-15C0.7,1.2,1.7,2.4,3.1,2.6"/>
	</g>
	<path d="M20.8,0c0.3,1.1,1.3,2.3,2.6,2.6h4.1l0.2,0.1V13h2.5V2.7l0.2-0.1h4.1c1.4-0.4,2.3-1.5,2.6-2.6C37.1,0,20.8,0,20.8,0z"/>
	<path d="M54.7,13.1c1.3-0.5,2-1.5,2.2-2.6H45.6V0h-2.5v13h11.6L54.7,13.1z"/>
</g>
</svg>
